<?xml version="1.0" standalone="no"?>
<!DOCTYPE svg PUBLIC "-//W3C//DTD SVG 20010904//EN"
 "http://www.w3.org/TR/2001/REC-SVG-20010904/DTD/svg10.dtd">
<svg version="1.0" xmlns="http://www.w3.org/2000/svg"
 width="4258.000000pt" height="4258.000000pt" viewBox="0 0 4258.000000 4258.000000"
 preserveAspectRatio="xMidYMid meet">
<metadata>
Created by potrace 1.14, written by Peter Selinger 2001-2017
</metadata>
<g transform="translate(0.000000,4258.000000) scale(0.100000,-0.100000)"
fill="#000000" stroke="none">
<path d="M20728 42575 c-2 -2 -93 -6 -203 -9 -110 -3 -238 -8 -285 -11 -47 -3
-121 -7 -165 -10 -44 -2 -80 -4 -80 -4 0 -1 -64 -5 -255 -16 -36 -2 -65 -4
-65 -5 0 -1 -22 -3 -50 -5 -82 -5 -187 -14 -230 -19 -22 -3 -74 -8 -115 -11
-83 -7 -107 -9 -195 -19 -33 -4 -82 -9 -110 -12 -27 -3 -68 -7 -90 -10 -22 -2
-58 -6 -80 -9 -63 -7 -107 -13 -155 -19 -25 -4 -61 -9 -80 -11 -113 -12 -151
-17 -200 -25 -30 -5 -75 -12 -100 -14 -25 -3 -56 -8 -69 -10 -12 -3 -42 -8
-65 -10 -22 -3 -50 -7 -61 -9 -42 -9 -92 -17 -140 -23 -48 -6 -59 -8 -115 -18
-14 -3 -41 -8 -60 -10 -19 -3 -46 -8 -60 -10 -38 -8 -250 -45 -290 -51 -19 -3
-44 -9 -55 -12 -11 -4 -31 -7 -45 -9 -14 -1 -47 -7 -75 -13 -51 -11 -60 -12
-130 -26 -22 -5 -44 -9 -50 -10 -17 -4 -119 -24 -145 -29 -38 -7 -70 -15 -88
-20 -18 -5 -63 -15 -97 -20 -11 -2 -38 -8 -60 -14 -36 -10 -84 -20 -125 -26
-9 -1 -20 -5 -25 -8 -9 -5 -52 -14 -105 -24 -8 -1 -62 -14 -120 -29 -58 -15
-112 -28 -120 -30 -69 -15 -350 -88 -370 -95 -14 -5 -36 -12 -50 -14 -14 -3
-46 -11 -72 -19 -27 -8 -48 -13 -48 -11 0 2 -17 -2 -37 -10 -21 -7 -56 -19
-78 -25 -22 -6 -125 -36 -230 -67 -104 -30 -198 -57 -208 -59 -9 -2 -22 -7
-27 -10 -5 -3 -19 -8 -31 -10 -11 -2 -86 -26 -167 -52 -81 -26 -150 -48 -154
-49 -5 -1 -10 -3 -13 -4 -3 -1 -9 -4 -15 -5 -5 -1 -11 -3 -12 -5 -2 -1 -10 -3
-18 -5 -30 -7 -609 -207 -670 -232 -8 -4 -17 -7 -20 -8 -3 -1 -13 -5 -22 -9
-9 -4 -22 -9 -30 -10 -7 -2 -26 -9 -43 -15 -16 -7 -34 -14 -40 -15 -5 -2 -21
-8 -35 -13 -14 -6 -81 -32 -150 -58 -123 -47 -156 -60 -215 -85 -16 -7 -35
-14 -40 -15 -6 -2 -31 -11 -55 -22 -49 -21 -112 -47 -120 -49 -3 0 -23 -9 -45
-19 -22 -10 -45 -19 -50 -21 -6 -1 -31 -11 -55 -22 -25 -11 -115 -50 -200 -87
-85 -36 -173 -74 -195 -84 -22 -11 -110 -50 -195 -89 -85 -38 -204 -93 -263
-121 -59 -28 -112 -51 -118 -51 -5 0 -9 -4 -9 -10 0 -5 -6 -10 -13 -10 -15 0
-601 -293 -623 -311 -8 -6 -14 -8 -14 -3 0 5 -4 5 -8 -1 -4 -5 -30 -22 -58
-36 -80 -41 -242 -128 -324 -174 -41 -23 -97 -55 -125 -70 -27 -15 -68 -38
-90 -50 -22 -13 -59 -33 -82 -45 -24 -12 -43 -26 -43 -31 0 -6 -4 -8 -9 -5 -5
3 -19 -2 -32 -12 -13 -9 -35 -23 -48 -30 -13 -8 -40 -23 -60 -34 -20 -11 -115
-68 -211 -126 -96 -58 -187 -112 -202 -119 -16 -8 -28 -19 -28 -24 0 -5 -6 -9
-12 -9 -12 0 -85 -45 -114 -69 -6 -5 -20 -12 -32 -15 -12 -4 -22 -12 -22 -17
0 -5 -5 -9 -12 -9 -6 0 -26 -11 -44 -25 -18 -14 -35 -25 -37 -25 -3 0 -60 -37
-128 -82 -68 -46 -129 -85 -134 -88 -10 -5 -252 -167 -380 -255 -38 -26 -72
-51 -75 -55 -3 -4 -16 -13 -29 -20 -14 -7 -30 -17 -35 -22 -11 -10 -177 -128
-277 -198 -31 -22 -64 -46 -72 -55 -9 -8 -18 -15 -22 -15 -4 0 -12 -6 -20 -12
-7 -7 -25 -22 -41 -33 -15 -11 -72 -54 -127 -95 -54 -41 -106 -79 -115 -85 -9
-5 -30 -22 -47 -38 -16 -15 -38 -30 -47 -33 -10 -3 -18 -9 -18 -13 0 -4 -21
-23 -47 -41 -27 -18 -55 -40 -63 -47 -8 -8 -100 -82 -205 -166 -193 -154 -234
-188 -267 -219 -10 -10 -22 -18 -26 -18 -5 0 -18 -10 -29 -22 -11 -13 -56 -52
-99 -88 -43 -35 -90 -75 -104 -87 -57 -51 -86 -73 -94 -73 -5 0 -6 -3 -3 -6 3
-4 -10 -19 -31 -34 -38 -29 -52 -41 -144 -125 -30 -27 -90 -81 -133 -120 -131
-117 -197 -178 -240 -220 -23 -22 -60 -57 -82 -77 -23 -20 -39 -39 -35 -42 3
-3 0 -6 -7 -6 -13 0 -130 -111 -415 -396 -192 -192 -456 -464 -456 -469 0 -2
-24 -27 -52 -57 -60 -62 -133 -141 -230 -249 -36 -41 -77 -86 -90 -100 -74
-82 -174 -197 -283 -323 -27 -32 -54 -64 -60 -70 -5 -6 -44 -51 -85 -101 -41
-49 -79 -95 -85 -101 -5 -6 -21 -26 -35 -44 -14 -19 -34 -44 -45 -56 -11 -12
-33 -39 -50 -60 -16 -21 -86 -108 -155 -194 -69 -86 -136 -171 -150 -189 -14
-19 -63 -84 -110 -145 -47 -61 -125 -165 -173 -231 -49 -66 -94 -127 -101
-135 -6 -9 -27 -38 -46 -65 -18 -28 -36 -52 -40 -55 -3 -3 -13 -16 -22 -30 -9
-14 -44 -63 -77 -110 -33 -47 -100 -143 -148 -215 -48 -71 -94 -136 -100 -143
-7 -7 -13 -17 -13 -21 0 -4 -8 -16 -18 -27 -23 -27 -41 -55 -48 -76 -4 -10
-10 -18 -14 -18 -4 0 -13 -13 -20 -30 -7 -16 -16 -30 -20 -30 -4 0 -12 -10
-19 -22 -16 -31 -26 -47 -101 -164 -140 -217 -271 -426 -304 -485 -10 -19 -22
-36 -25 -39 -7 -6 -29 -43 -50 -85 -8 -16 -17 -32 -21 -35 -4 -3 -20 -30 -37
-60 -17 -30 -60 -106 -97 -168 -36 -62 -66 -116 -66 -119 0 -4 -6 -14 -14 -22
-7 -9 -28 -45 -47 -81 -18 -36 -36 -67 -39 -70 -5 -5 -25 -42 -83 -153 -16
-31 -33 -60 -38 -63 -5 -3 -9 -14 -9 -24 0 -10 -4 -20 -9 -22 -4 -1 -45 -75
-91 -163 -45 -88 -87 -164 -91 -169 -5 -6 -9 -18 -9 -28 0 -10 -4 -18 -9 -18
-5 0 -13 -10 -17 -22 -3 -13 -12 -30 -19 -38 -8 -8 -14 -18 -14 -23 0 -4 -53
-114 -117 -244 -64 -131 -129 -265 -145 -299 -15 -34 -46 -100 -67 -146 -62
-132 -76 -163 -77 -168 -1 -3 -16 -35 -33 -73 -18 -37 -32 -69 -32 -71 0 -2
-16 -39 -36 -83 -19 -43 -39 -87 -44 -98 -4 -11 -16 -38 -26 -60 -10 -22 -19
-42 -19 -45 0 -3 -11 -27 -23 -54 -12 -27 -22 -50 -22 -53 0 -2 -8 -23 -19
-46 -10 -23 -51 -123 -90 -222 -40 -99 -76 -188 -82 -197 -5 -10 -9 -22 -9
-27 0 -5 -8 -26 -17 -47 -9 -22 -18 -44 -19 -50 -1 -6 -9 -27 -17 -45 -18 -41
-68 -170 -72 -184 -1 -5 -7 -21 -12 -35 -6 -14 -17 -45 -26 -70 -8 -25 -27
-75 -41 -112 -14 -38 -23 -68 -19 -68 3 0 1 -6 -6 -13 -6 -7 -60 -164 -121
-348 -61 -184 -114 -341 -117 -349 -8 -20 -8 -20 -18 -55 -6 -25 -35 -122 -51
-173 -2 -7 -4 -14 -4 -17 0 -3 -8 -24 -16 -47 -9 -24 -18 -52 -19 -63 -2 -11
-8 -33 -13 -50 -13 -39 -77 -261 -87 -300 -5 -16 -10 -34 -11 -40 -6 -16 -85
-308 -89 -325 -1 -8 -9 -35 -16 -60 -14 -52 -15 -56 -22 -92 -3 -15 -15 -61
-27 -104 -11 -42 -18 -79 -15 -82 2 -3 1 -10 -5 -16 -5 -7 -12 -27 -15 -46 -3
-18 -8 -36 -10 -40 -3 -4 -7 -22 -10 -41 -2 -19 -18 -90 -35 -159 -16 -69 -32
-136 -34 -150 -3 -14 -14 -65 -25 -115 -11 -49 -23 -106 -26 -125 -9 -46 -13
-65 -15 -65 -1 0 -3 -9 -5 -20 -1 -11 -6 -38 -10 -60 -4 -22 -9 -49 -11 -60
-1 -11 -3 -20 -4 -20 -2 0 -6 -18 -13 -60 -3 -16 -11 -61 -18 -100 -7 -38 -12
-73 -11 -77 1 -5 -3 -8 -9 -8 -5 0 -8 -4 -5 -8 3 -5 -8 -82 -24 -173 -16 -90
-31 -182 -34 -204 -4 -22 -11 -66 -17 -98 -5 -32 -12 -74 -15 -95 -2 -20 -6
-44 -9 -52 -4 -14 -12 -77 -20 -157 -2 -18 -6 -36 -8 -40 -3 -5 -8 -40 -11
-78 -4 -39 -8 -77 -11 -85 -2 -8 -7 -39 -10 -69 -4 -30 -8 -61 -10 -70 -1 -9
-6 -45 -10 -81 -3 -36 -8 -72 -10 -80 -2 -8 -6 -44 -10 -80 -3 -36 -7 -76 -9
-90 -2 -14 -7 -52 -10 -85 -4 -33 -9 -76 -11 -95 -3 -19 -7 -60 -9 -91 -3 -31
-8 -88 -12 -125 -4 -38 -8 -87 -9 -109 -2 -22 -4 -40 -5 -40 -1 0 -3 -22 -14
-175 -2 -36 -7 -103 -11 -150 -12 -162 -15 -205 -20 -305 -2 -55 -7 -136 -9
-180 -28 -468 -28 -1546 -1 -2094 10 -203 15 -280 20 -336 3 -33 7 -89 9 -125
3 -36 8 -110 12 -165 4 -55 8 -116 9 -135 2 -19 4 -35 5 -35 1 0 3 -22 5 -50
6 -88 14 -169 20 -220 4 -27 8 -70 10 -95 7 -78 15 -164 21 -195 2 -16 7 -55
9 -85 3 -30 8 -71 10 -90 7 -45 13 -83 20 -145 4 -27 9 -63 11 -80 3 -16 6
-46 9 -65 10 -86 17 -133 36 -257 11 -73 22 -145 24 -160 2 -16 6 -43 9 -60 3
-18 8 -45 10 -60 3 -16 12 -68 20 -118 8 -49 17 -107 21 -129 3 -21 7 -41 9
-45 3 -4 8 -34 11 -66 4 -33 9 -63 12 -67 2 -4 6 -23 8 -43 3 -19 9 -54 14
-77 9 -40 18 -85 26 -133 2 -11 6 -31 9 -45 13 -63 18 -87 22 -115 2 -16 7
-38 10 -47 3 -10 8 -30 10 -45 4 -23 22 -108 40 -188 2 -11 6 -31 9 -45 3 -14
9 -40 14 -58 5 -18 10 -35 10 -37 1 -3 1 -6 2 -7 0 -2 2 -14 5 -28 2 -14 9
-43 14 -65 6 -22 13 -53 15 -70 2 -16 4 -30 5 -30 1 0 3 -7 5 -15 2 -8 7 -26
10 -40 3 -14 8 -34 11 -45 3 -16 71 -282 145 -570 6 -22 12 -47 14 -55 2 -8 8
-26 13 -40 5 -14 10 -27 10 -30 0 -10 23 -96 32 -120 5 -14 12 -36 14 -50 3
-14 18 -69 35 -123 16 -54 29 -99 29 -100 1 -1 3 -9 6 -17 7 -24 117 -383 121
-400 3 -8 16 -49 31 -90 14 -41 27 -82 29 -90 2 -15 7 -29 28 -85 7 -16 12
-33 13 -37 1 -5 2 -9 4 -10 1 -2 3 -10 5 -18 2 -8 26 -80 55 -160 28 -80 53
-149 54 -155 2 -5 6 -17 9 -25 3 -8 27 -73 52 -144 47 -132 119 -325 134 -361
5 -11 14 -33 21 -50 8 -16 14 -34 16 -40 3 -14 82 -213 99 -252 8 -17 15 -33
15 -36 0 -3 5 -18 12 -34 6 -15 12 -30 13 -33 1 -3 10 -23 19 -45 10 -22 26
-60 37 -84 10 -24 19 -50 19 -57 0 -8 5 -14 10 -14 6 0 10 -8 10 -18 0 -10 3
-22 7 -26 5 -4 8 -11 9 -14 0 -4 6 -18 12 -32 6 -14 48 -108 93 -210 44 -102
91 -207 104 -235 12 -27 29 -65 36 -82 8 -18 17 -33 21 -33 5 0 7 -3 6 -7 -2
-11 8 -35 66 -153 28 -58 51 -107 51 -110 0 -9 269 -545 297 -593 15 -26 25
-47 22 -47 -3 0 3 -12 13 -27 10 -16 34 -59 53 -98 19 -38 38 -71 43 -73 4 -2
7 -8 7 -13 0 -5 11 -27 25 -49 14 -22 23 -40 19 -40 -3 0 3 -12 14 -27 11 -16
38 -64 61 -108 23 -44 46 -87 51 -95 6 -8 60 -103 121 -210 61 -107 119 -206
128 -220 9 -14 23 -38 31 -55 8 -16 29 -51 47 -76 17 -26 30 -49 27 -51 -2 -3
5 -13 16 -23 11 -10 20 -23 20 -29 0 -5 11 -26 24 -45 71 -108 116 -181 116
-189 0 -5 9 -17 20 -27 10 -9 18 -20 17 -24 -1 -3 22 -41 51 -84 29 -43 52
-80 52 -82 0 -5 146 -227 159 -242 6 -7 11 -14 11 -17 0 -7 269 -403 293 -431
4 -5 17 -23 27 -40 41 -63 45 -69 55 -81 10 -12 13 -16 93 -129 28 -38 57 -78
66 -87 9 -10 16 -21 16 -25 0 -5 11 -21 25 -38 13 -16 81 -106 151 -200 70
-93 144 -191 166 -216 21 -26 38 -51 38 -57 0 -6 4 -12 8 -14 4 -1 44 -48 87
-103 44 -55 83 -102 86 -105 3 -3 19 -23 35 -45 16 -22 39 -51 51 -65 20 -23
134 -162 213 -259 19 -24 45 -54 57 -67 13 -13 23 -26 23 -30 0 -4 8 -14 18
-23 10 -9 42 -45 72 -81 30 -35 60 -70 65 -76 6 -6 35 -39 65 -74 30 -35 70
-79 87 -98 18 -18 33 -36 33 -39 0 -3 10 -15 23 -27 12 -12 54 -57 92 -100 39
-44 98 -109 131 -145 34 -36 76 -82 94 -101 232 -254 798 -820 1071 -1071 21
-19 81 -74 134 -124 117 -108 101 -93 205 -185 47 -41 87 -77 90 -80 3 -3 39
-34 80 -70 41 -35 77 -67 80 -70 5 -5 111 -96 159 -135 13 -11 29 -24 35 -30
16 -14 127 -107 150 -125 10 -8 38 -31 61 -50 23 -19 57 -46 74 -60 18 -14 40
-32 49 -41 9 -8 40 -33 67 -55 28 -21 52 -42 53 -46 2 -5 10 -8 18 -8 8 0 14
-4 14 -8 0 -4 21 -24 48 -44 100 -76 198 -153 216 -170 11 -10 23 -18 26 -18
4 0 18 -9 31 -21 13 -11 34 -29 47 -40 12 -10 26 -19 31 -19 5 0 11 -3 13 -7
2 -5 30 -28 63 -52 33 -25 62 -48 63 -53 2 -4 10 -8 18 -8 8 0 14 -4 14 -8 0
-5 12 -15 27 -23 16 -8 33 -19 38 -25 6 -6 44 -35 85 -65 41 -29 76 -57 78
-61 2 -5 8 -8 14 -8 11 0 81 -51 86 -62 2 -5 10 -8 18 -8 8 0 14 -4 14 -8 0
-5 12 -15 27 -23 16 -8 35 -22 44 -31 9 -10 20 -18 26 -18 5 0 24 -13 43 -30
19 -16 41 -29 48 -30 6 0 12 -4 12 -10 0 -5 6 -10 14 -10 8 0 16 -4 18 -8 2
-5 66 -51 143 -102 77 -52 141 -98 143 -102 2 -4 8 -8 13 -8 9 0 148 -88 159
-101 3 -3 31 -20 62 -38 32 -18 58 -37 58 -42 0 -5 6 -9 14 -9 8 0 28 -11 44
-25 16 -13 32 -22 35 -18 4 3 9 -2 13 -11 3 -9 10 -16 15 -16 12 0 143 -82
147 -92 2 -4 12 -8 22 -8 10 0 21 -7 24 -16 3 -8 10 -12 16 -9 5 3 10 1 10 -4
0 -6 4 -11 9 -11 8 0 33 -15 146 -88 11 -7 34 -19 52 -27 17 -8 37 -20 45 -27
7 -7 33 -24 58 -37 25 -14 74 -42 109 -63 34 -21 67 -38 72 -38 5 0 9 -4 9
-10 0 -5 4 -10 10 -10 5 0 47 -22 92 -48 46 -26 103 -58 128 -71 25 -13 50
-28 56 -33 15 -11 146 -82 204 -110 25 -12 47 -25 50 -29 3 -3 63 -36 133 -72
70 -36 134 -71 142 -77 8 -7 15 -9 15 -6 0 4 12 -1 27 -12 36 -24 636 -322
650 -322 6 0 16 -7 23 -15 7 -9 15 -13 18 -11 2 3 40 -13 83 -34 43 -22 85
-40 93 -40 8 0 16 -4 18 -8 2 -4 32 -20 68 -36 36 -16 88 -39 115 -52 151 -69
280 -124 292 -124 7 0 13 -4 13 -10 0 -5 6 -10 12 -10 12 0 124 -46 252 -103
27 -12 52 -22 55 -23 3 0 17 -5 31 -11 67 -29 440 -176 480 -190 25 -8 50 -18
55 -22 6 -4 30 -14 55 -21 25 -7 51 -18 58 -23 6 -5 12 -6 12 -2 0 4 6 3 13
-2 6 -5 32 -17 57 -25 25 -9 86 -31 135 -48 50 -17 97 -34 105 -37 8 -4 17 -7
20 -8 3 -1 12 -4 20 -8 8 -3 78 -27 155 -52 77 -26 149 -51 160 -55 23 -10
320 -106 450 -145 50 -15 97 -29 105 -32 8 -2 17 -5 20 -5 3 0 29 -9 58 -19
28 -10 52 -16 52 -13 0 2 13 -2 30 -11 16 -8 31 -15 32 -14 4 3 214 -56 258
-72 14 -4 36 -11 50 -13 14 -3 46 -12 73 -20 26 -8 48 -15 50 -15 1 1 22 -4
47 -11 25 -7 54 -14 65 -16 11 -2 97 -24 190 -49 94 -25 179 -47 190 -49 42
-9 121 -28 135 -33 17 -7 24 -9 65 -17 17 -3 50 -10 75 -16 25 -6 56 -13 70
-16 27 -6 103 -23 135 -30 11 -3 31 -7 45 -10 14 -3 53 -11 86 -19 34 -8 73
-16 85 -19 13 -3 49 -10 79 -16 30 -6 64 -13 75 -15 11 -2 32 -6 48 -9 15 -3
39 -8 55 -12 35 -7 57 -12 57 -14 0 -1 14 -3 30 -5 44 -6 83 -12 145 -25 62
-13 80 -16 130 -24 19 -3 60 -10 90 -16 30 -6 66 -13 80 -15 14 -2 54 -9 90
-15 36 -6 85 -13 110 -17 50 -6 75 -11 75 -13 0 -1 16 -3 35 -5 19 -2 51 -7
70 -10 39 -7 63 -10 130 -19 25 -3 56 -8 70 -11 25 -4 39 -6 185 -26 44 -5 94
-12 110 -14 17 -3 53 -7 80 -10 28 -3 67 -8 88 -11 21 -3 53 -7 70 -9 66 -8
133 -15 174 -20 23 -3 68 -8 100 -10 32 -3 81 -8 108 -11 28 -3 70 -7 95 -9
25 -2 70 -6 100 -9 30 -3 87 -8 125 -12 39 -3 93 -7 120 -10 28 -2 86 -6 130
-9 44 -3 107 -7 140 -10 33 -2 116 -7 185 -11 69 -3 152 -8 185 -10 318 -18
1355 -25 1770 -12 110 4 200 7 200 8 0 1 43 3 95 5 92 4 202 10 345 20 39 3
106 7 150 10 155 11 220 16 265 20 25 3 70 7 100 9 48 4 132 12 210 21 14 1
57 6 95 9 39 4 88 10 110 12 108 12 142 16 165 18 14 2 52 7 86 10 33 4 71 9
85 11 13 2 44 7 69 9 48 5 258 34 300 41 14 3 50 7 80 11 30 3 57 8 60 9 3 2
33 7 65 10 33 4 69 9 80 12 20 4 41 7 118 18 23 3 50 8 60 11 11 4 29 7 40 9
20 2 55 7 137 21 14 2 35 6 46 8 12 2 37 7 55 10 19 3 45 8 59 11 14 3 39 7
55 10 17 3 41 8 55 10 14 3 36 7 50 10 14 3 48 9 75 15 28 5 61 12 75 14 14 3
25 5 25 6 0 1 14 3 30 6 37 5 70 12 70 14 0 1 9 3 20 5 32 4 84 15 175 35 47
10 96 21 110 24 14 2 66 14 115 25 50 12 101 24 115 27 44 9 128 29 170 39 11
3 29 7 40 10 11 3 29 7 40 10 11 3 29 7 40 10 11 3 28 7 38 9 9 2 98 25 197
51 99 25 187 48 195 50 8 2 15 4 15 5 0 1 11 4 25 6 45 8 356 97 610 175 41
13 80 24 85 25 6 1 69 20 140 44 72 23 135 43 140 44 6 2 17 6 25 9 46 17 217
70 228 70 6 0 12 3 12 7 0 4 6 7 13 7 10 1 133 42 177 60 8 3 20 7 27 8 10 3
280 99 313 112 8 4 17 7 20 7 3 1 19 7 35 13 17 7 62 24 100 38 39 14 81 31
95 37 14 7 27 12 30 13 28 7 343 129 440 171 120 52 215 89 222 86 5 -1 8 2 8
8 0 5 6 10 14 10 8 0 27 6 43 14 48 25 122 56 133 56 5 0 10 4 10 8 0 4 8 8
18 9 9 1 66 24 125 52 60 28 110 51 113 51 2 0 34 15 71 33 38 18 70 33 73 33
5 0 81 35 210 97 36 17 68 32 72 32 4 0 13 6 19 13 7 6 17 12 22 12 14 0 142
63 149 74 4 6 8 8 8 4 0 -7 483 234 505 252 7 6 15 7 18 3 4 -3 7 -2 7 4 0 9
27 21 47 21 3 0 9 4 12 9 3 4 24 17 46 28 22 11 42 22 45 25 3 3 23 14 45 25
22 10 52 27 67 37 14 10 33 18 41 18 9 0 17 4 19 9 2 5 21 17 43 28 44 22 251
137 275 153 29 19 85 48 94 48 5 0 12 4 15 9 8 12 98 67 171 105 14 7 54 31
90 54 36 22 70 43 75 45 13 5 130 77 220 135 39 25 78 47 88 51 9 3 17 9 17
14 0 5 6 9 13 9 7 0 23 9 35 20 12 11 24 20 28 20 4 0 32 17 63 37 31 21 59
37 64 35 4 -1 7 1 7 6 0 4 16 16 35 26 19 11 35 23 35 28 0 4 5 8 10 8 6 0 56
31 113 68 56 38 110 71 120 75 9 3 17 11 17 17 0 5 4 10 10 10 7 0 93 55 135
87 6 5 37 26 70 48 33 22 62 43 63 48 2 4 9 7 16 7 7 0 21 8 32 18 11 10 33
27 49 38 35 22 40 26 81 59 18 14 36 25 41 25 4 0 19 10 33 23 14 12 45 36 69
52 25 17 75 53 112 80 37 28 77 57 89 65 12 8 107 80 211 160 105 80 200 150
211 157 11 6 23 15 27 20 3 5 49 42 100 83 52 40 104 81 115 91 12 9 68 55
126 101 58 45 115 92 126 103 12 11 35 30 51 42 16 12 41 33 54 45 14 13 47
41 75 63 68 56 94 78 113 96 9 8 45 40 80 70 36 30 72 61 81 69 9 8 45 40 79
70 35 30 73 64 85 75 207 186 278 250 353 322 24 24 45 43 46 43 2 0 74 69
162 153 372 358 787 785 1070 1102 39 43 91 102 118 130 26 29 56 64 68 78 11
15 32 39 47 55 15 15 47 51 72 81 25 29 55 64 67 77 13 13 23 28 23 34 0 5 4
10 8 10 5 0 30 27 58 61 27 33 58 70 69 83 11 13 31 37 45 55 14 17 36 43 50
59 14 15 41 47 60 72 19 24 49 60 65 80 17 20 42 52 57 71 14 19 35 44 45 56
10 12 27 33 37 48 11 14 27 35 35 45 36 42 50 60 125 160 44 58 85 110 90 115
6 6 22 27 36 47 14 21 28 38 33 38 4 0 7 4 7 10 0 5 7 18 15 27 14 17 188 252
235 318 109 152 229 322 268 380 26 39 49 72 52 75 7 7 266 398 321 485 24 39
47 75 52 80 4 6 40 62 79 125 39 63 81 131 93 150 30 47 126 205 145 238 49
88 135 227 142 230 4 2 8 10 8 18 0 8 11 32 25 52 14 20 25 42 25 49 0 7 5 13
10 13 6 0 10 5 10 10 0 6 11 27 23 48 13 20 37 62 54 92 16 30 50 90 74 134
24 43 65 117 90 165 25 47 65 122 89 166 24 44 77 148 119 230 42 83 81 153
86 157 6 4 6 8 2 8 -9 0 22 61 36 71 5 3 8 9 8 13 -1 3 25 59 56 124 31 64 58
119 58 122 1 3 22 47 48 98 25 51 46 95 47 97 0 3 17 40 36 82 92 199 115 250
119 263 0 3 13 32 29 65 15 33 32 69 36 80 5 11 18 41 29 67 12 26 21 52 21
57 0 6 5 11 10 11 6 0 10 6 10 14 0 12 87 226 136 333 8 17 14 38 14 47 0 9 4
16 9 16 5 0 12 14 16 31 4 17 13 42 21 57 8 15 14 34 14 43 0 8 4 19 8 25 5 5
19 36 31 69 13 33 27 69 32 80 5 11 25 63 44 115 46 124 47 125 44 125 -1 0 3
11 10 24 7 13 33 80 58 150 64 179 174 494 177 506 4 19 58 180 66 200 5 11
23 67 40 125 17 58 35 113 40 122 6 10 10 24 10 31 0 8 10 43 21 78 12 35 22
69 23 74 2 6 13 44 25 85 13 41 25 82 26 90 2 8 4 17 6 20 1 3 3 10 4 15 2 6
4 13 5 18 1 4 3 10 5 15 1 4 4 14 8 22 5 12 27 87 32 110 13 57 29 117 34 125
3 6 6 15 7 20 1 6 10 39 19 75 9 36 18 72 20 80 2 8 4 15 5 15 2 0 4 10 13 50
3 11 15 58 27 105 12 47 24 93 26 102 2 10 6 26 8 35 2 10 13 54 25 99 11 45
23 92 25 105 3 13 5 24 6 24 1 0 3 7 5 15 2 8 10 44 19 80 9 36 18 76 20 90 3
14 10 48 17 75 6 28 13 59 14 70 2 11 4 20 5 20 1 0 3 7 5 15 1 8 10 49 19 90
9 41 19 86 22 100 2 14 7 31 9 38 2 7 7 34 11 60 3 26 8 50 10 53 2 4 6 24 9
45 3 22 8 45 11 53 2 8 7 30 10 50 4 20 7 41 9 46 2 12 13 68 20 110 17 94 37
203 40 225 3 14 7 36 10 50 3 14 7 39 10 55 2 17 6 41 9 55 13 62 29 167 30
193 0 15 3 27 6 27 3 0 6 12 6 28 1 15 4 40 7 57 9 41 22 148 19 158 -1 4 1 7
5 7 5 0 8 15 9 33 0 32 10 112 19 158 3 13 7 44 10 69 2 25 6 54 8 65 4 19 18
134 22 180 1 11 5 40 8 65 13 89 48 424 62 600 2 25 4 45 5 45 1 0 6 69 14
190 2 28 5 50 5 50 1 0 4 34 6 75 2 41 7 104 9 140 3 36 8 121 12 189 3 68 8
151 10 185 14 258 18 500 18 1021 0 537 -4 771 -19 1045 -11 212 -22 383 -30
495 -11 138 -18 244 -19 277 -1 21 -3 38 -6 38 -3 0 -6 19 -6 43 -1 40 -8 122
-19 217 -2 25 -7 72 -10 105 -3 33 -8 74 -10 90 -2 17 -7 57 -10 90 -3 33 -7
71 -9 85 -2 14 -7 54 -11 90 -4 36 -9 74 -10 85 -2 11 -6 45 -10 75 -6 55 -14
106 -20 141 -2 10 -7 49 -10 86 -4 37 -9 71 -11 74 -2 3 -6 33 -10 65 -3 32
-7 61 -9 64 -2 3 -7 33 -10 65 -4 33 -9 69 -12 80 -2 11 -6 34 -8 50 -2 17 -6
44 -9 60 -4 17 -9 46 -12 65 -3 19 -7 46 -10 60 -2 14 -7 42 -10 63 -3 21 -7
44 -8 50 -4 18 -15 79 -21 112 -10 53 -25 133 -36 193 -6 31 -14 76 -18 100
-5 23 -9 45 -9 47 -1 3 -2 6 -3 8 -2 6 -9 44 -13 67 -3 14 -7 36 -10 50 -7 30
-13 62 -22 115 -3 22 -9 44 -12 50 -3 5 -7 20 -8 33 -2 13 -10 56 -19 95 -9
40 -19 83 -21 95 -3 13 -18 81 -35 150 -16 70 -32 136 -34 147 -2 11 -15 67
-30 125 -15 58 -28 112 -30 120 -2 8 -8 35 -14 60 -7 25 -14 54 -16 64 -2 10
-9 33 -14 50 -6 17 -13 42 -15 56 -5 21 -30 121 -40 155 -1 6 -8 30 -15 55 -6
25 -18 68 -26 95 -8 28 -31 106 -51 175 -19 69 -49 170 -65 225 -17 55 -31
105 -33 110 -2 6 -5 17 -8 25 -3 8 -17 56 -32 105 -15 50 -30 97 -33 105 -3 8
-8 21 -10 28 -1 6 -5 18 -6 25 -2 6 -7 19 -10 27 -3 8 -11 33 -17 55 -6 22
-15 49 -20 60 -4 11 -14 40 -21 65 -7 25 -15 49 -17 54 -3 5 -29 81 -59 170
-29 88 -57 168 -60 176 -3 8 -7 17 -8 20 -1 3 -4 12 -8 20 -3 8 -17 49 -32 90
-14 41 -29 84 -34 95 -5 11 -17 43 -26 70 -10 28 -23 64 -30 80 -7 17 -19 48
-26 70 -7 22 -17 44 -21 50 -4 5 -8 17 -8 27 0 10 -5 18 -11 18 -5 0 -8 4 -5
8 2 4 -9 39 -25 77 -16 38 -29 73 -29 78 0 4 -9 26 -19 48 -11 22 -23 53 -26
69 -4 17 -11 30 -16 30 -5 0 -9 5 -9 11 0 19 -175 445 -241 587 -16 34 -29 64
-29 67 0 2 -20 48 -45 101 -25 53 -45 97 -45 99 0 3 -91 199 -133 285 -18 36
-32 67 -33 70 0 3 -35 75 -77 162 -42 86 -77 161 -77 166 0 6 -3 12 -7 14 -5
2 -40 66 -79 143 -105 209 -178 349 -185 355 -3 3 -15 25 -27 50 -29 61 -89
169 -233 425 -10 17 -26 47 -36 68 -10 20 -21 37 -25 37 -5 0 -8 5 -8 12 0 6
-13 32 -29 57 -46 73 -81 135 -88 154 -3 9 -9 17 -14 17 -5 0 -9 6 -9 14 0 8
-7 21 -15 30 -8 8 -20 25 -25 38 -13 27 -18 36 -88 148 -29 47 -59 94 -65 105
-75 124 -92 150 -99 153 -4 2 -8 8 -8 13 0 6 -18 37 -40 70 -22 33 -40 65 -40
70 0 5 -5 9 -11 9 -5 0 -8 4 -5 9 4 5 2 11 -2 13 -10 4 -142 205 -142 216 0 4
-9 14 -20 22 -11 8 -20 22 -20 32 0 10 -4 18 -8 18 -5 0 -15 12 -23 28 -8 15
-17 29 -20 32 -3 3 -43 61 -89 130 -47 69 -88 127 -92 128 -5 2 -8 10 -8 17 0
7 -3 15 -7 17 -5 2 -37 46 -73 98 -35 52 -69 100 -75 106 -5 6 -17 22 -25 34
-8 13 -34 49 -58 81 -100 139 -134 185 -152 209 -11 14 -41 54 -67 90 -26 36
-51 67 -55 68 -5 2 -8 8 -8 13 0 8 -20 35 -47 64 -7 8 -13 18 -13 24 0 6 -4
11 -8 11 -5 0 -24 21 -43 47 -30 42 -197 256 -264 338 -14 17 -39 48 -57 71
-51 62 -98 121 -116 143 -10 11 -33 39 -52 62 -19 23 -40 47 -45 53 -6 6 -30
36 -55 66 -25 30 -49 60 -55 66 -5 6 -30 35 -55 64 -25 30 -55 64 -67 76 -13
13 -23 25 -23 28 0 3 -15 20 -32 39 -18 18 -46 49 -62 68 -38 44 -165 188
-191 215 -11 11 -49 53 -85 93 -36 40 -87 95 -114 124 -375 400 -750 775
-1086 1087 -171 159 -173 160 -251 230 -40 36 -77 70 -83 75 -6 6 -47 42 -91
80 -44 39 -87 77 -96 85 -9 8 -40 35 -69 60 -29 25 -62 53 -74 63 -12 11 -38
33 -60 50 -21 18 -59 50 -84 72 -24 22 -54 47 -66 55 -12 8 -25 19 -31 25 -5
7 -32 29 -60 51 -27 21 -52 41 -55 44 -5 5 -101 84 -130 107 -80 63 -186 148
-190 153 -3 3 -32 25 -65 49 -33 25 -62 48 -65 51 -3 3 -32 26 -65 51 -33 24
-66 50 -75 56 -8 7 -85 64 -170 127 -85 64 -159 119 -165 124 -5 4 -32 23 -60
42 -27 19 -58 43 -69 53 -11 9 -23 17 -27 17 -4 0 -14 6 -21 13 -23 22 -289
207 -298 207 -4 0 -10 3 -12 8 -8 19 -727 492 -748 492 -4 0 -10 3 -12 8 -4
10 -137 92 -149 92 -5 0 -9 4 -9 9 0 5 -18 17 -40 27 -22 10 -40 21 -40 26 0
4 -4 8 -10 8 -5 0 -41 20 -80 45 -39 25 -72 45 -75 45 -2 0 -29 16 -59 35 -30
19 -58 35 -61 35 -3 0 -24 12 -48 27 -73 46 -278 163 -287 163 -5 0 -10 3 -12
8 -3 7 -43 30 -163 92 -32 17 -64 35 -70 39 -10 8 -144 80 -258 139 -31 16
-64 35 -72 42 -8 7 -15 9 -15 5 0 -4 -6 -3 -12 3 -21 17 -151 82 -164 82 -7 0
-14 7 -18 15 -3 8 -11 15 -17 15 -6 0 -111 50 -234 110 -122 61 -227 110 -233
110 -7 0 -12 5 -12 10 0 6 -6 10 -12 10 -7 0 -40 13 -73 29 -102 50 -244 116
-375 174 -69 30 -151 67 -182 81 -31 14 -59 26 -62 26 -2 0 -33 13 -68 29 -35
16 -92 41 -128 56 -36 14 -78 32 -95 40 -16 7 -77 32 -135 55 -58 23 -116 47
-130 53 -14 6 -27 11 -30 12 -3 0 -77 29 -165 64 -88 35 -164 64 -170 66 -14
3 -45 15 -82 31 -17 8 -33 14 -36 14 -3 0 -18 5 -34 12 -15 6 -35 12 -43 14
-8 2 -23 7 -35 13 -11 6 -99 38 -195 71 -96 34 -182 64 -190 67 -8 4 -17 7
-20 8 -40 10 -156 50 -160 54 -3 3 -14 7 -25 9 -11 1 -29 7 -40 12 -21 9 -207
70 -228 74 -7 2 -19 6 -27 9 -35 13 -343 108 -363 111 -25 5 -133 39 -149 47
-10 5 -27 9 -37 9 -11 0 -30 4 -43 9 -13 5 -50 17 -83 26 -33 9 -67 19 -75 22
-8 3 -22 7 -30 8 -8 1 -51 12 -95 24 -185 51 -440 117 -488 126 -10 3 -27 7
-37 10 -10 3 -27 7 -37 9 -10 2 -36 9 -58 14 -22 6 -51 13 -65 16 -14 3 -43
10 -65 16 -22 5 -56 12 -75 16 -19 3 -49 10 -67 15 -17 6 -43 12 -58 15 -14 2
-77 15 -138 29 -140 30 -165 35 -202 41 -16 2 -41 7 -55 11 -36 9 -42 10 -75
16 -16 3 -41 8 -55 11 -13 3 -42 8 -64 12 -22 3 -43 7 -46 9 -5 3 -65 14 -110
20 -8 1 -40 7 -70 13 -30 6 -75 14 -100 17 -24 4 -47 8 -50 10 -4 2 -29 7 -56
10 -27 4 -56 8 -64 10 -25 7 -83 17 -115 20 -16 1 -41 5 -55 9 -14 3 -43 8
-65 10 -22 3 -49 7 -60 9 -18 4 -89 15 -150 23 -11 1 -22 3 -25 4 -3 1 -8 2
-11 2 -3 -1 -67 8 -142 18 -75 11 -158 22 -184 25 -26 3 -59 8 -73 10 -30 6
-124 17 -165 20 -16 1 -55 5 -85 9 -69 9 -121 15 -185 21 -27 2 -72 7 -100 10
-109 11 -172 17 -210 20 -22 2 -40 4 -40 4 0 1 -29 4 -65 6 -67 4 -145 10
-260 20 -92 7 -295 19 -520 31 -69 3 -161 8 -205 10 -93 5 -1372 13 -1377 9z"/>
</g>
</svg>
