<?xml version="1.0" standalone="no"?>
<!DOCTYPE svg PUBLIC "-//W3C//DTD SVG 20010904//EN"
 "http://www.w3.org/TR/2001/REC-SVG-20010904/DTD/svg10.dtd">
<svg version="1.0" xmlns="http://www.w3.org/2000/svg"
 width="1068.000000pt" height="1068.000000pt" viewBox="0 0 1068.000000 1068.000000"
 preserveAspectRatio="xMidYMid meet">
<metadata>
Created by potrace 1.14, written by Peter Selinger 2001-2017
</metadata>
<g transform="translate(0.000000,1068.000000) scale(0.100000,-0.100000)"
fill="#000000" stroke="none">
<path d="M4919 10676 c-2 -2 -38 -6 -79 -10 -41 -3 -86 -8 -100 -10 -14 -3
-50 -7 -80 -10 -30 -4 -68 -9 -85 -11 -190 -31 -385 -70 -530 -107 -66 -16
-124 -31 -130 -32 -28 -6 -205 -62 -310 -98 -422 -145 -860 -362 -1225 -609
-138 -93 -233 -160 -240 -168 -3 -3 -34 -28 -70 -56 -63 -48 -203 -163 -285
-235 -101 -88 -412 -408 -515 -530 -112 -133 -279 -352 -336 -440 -16 -25 -32
-47 -35 -50 -3 -3 -12 -16 -19 -29 -7 -14 -17 -30 -21 -35 -26 -31 -133 -210
-213 -356 -100 -181 -238 -485 -311 -685 -20 -55 -39 -107 -42 -115 -3 -8 -7
-19 -9 -25 -1 -5 -16 -53 -33 -105 -40 -121 -107 -368 -125 -460 -3 -14 -7
-36 -10 -50 -15 -67 -36 -179 -40 -210 -2 -19 -5 -35 -6 -35 -2 0 -6 -24 -15
-90 -4 -33 -9 -71 -11 -85 -2 -14 -6 -52 -9 -85 -3 -33 -7 -69 -10 -80 -27
-136 -27 -808 0 -1040 2 -22 7 -64 10 -93 3 -28 7 -69 10 -90 8 -53 26 -173
31 -202 2 -14 7 -41 10 -60 3 -19 12 -66 21 -105 17 -81 21 -101 28 -134 46
-234 192 -672 315 -951 47 -108 186 -387 218 -440 12 -19 25 -42 28 -50 32
-73 229 -373 364 -555 236 -319 601 -703 885 -931 33 -27 65 -53 72 -59 24
-20 39 -31 118 -91 93 -69 87 -65 241 -170 260 -176 597 -360 859 -469 50 -21
108 -45 130 -55 22 -10 51 -21 65 -25 14 -4 39 -13 55 -20 222 -97 779 -239
1095 -280 25 -3 56 -8 70 -10 14 -2 54 -7 90 -10 36 -4 94 -10 130 -15 69 -9
961 -7 995 2 11 3 52 9 90 12 39 4 81 9 95 11 14 2 45 7 70 10 260 32 636 122
945 227 675 228 1348 621 1860 1087 66 60 370 365 415 416 534 605 914 1287
1141 2045 24 81 26 85 33 115 2 11 16 65 30 120 29 117 59 262 81 395 21 122
23 135 30 195 3 28 8 66 12 85 10 52 13 1116 4 1180 -5 30 -12 86 -15 123 -4
37 -9 78 -12 90 -2 12 -11 63 -19 112 -39 228 -99 479 -160 675 -20 63 -38
120 -39 125 -2 6 -6 17 -9 25 -3 8 -24 66 -46 128 -109 304 -270 634 -464 957
-33 55 -63 102 -66 105 -3 3 -28 39 -55 80 -77 118 -264 363 -377 495 -122
143 -387 412 -501 510 -44 39 -86 75 -92 80 -35 32 -183 150 -251 201 -44 32
-82 61 -85 64 -23 26 -377 251 -490 313 -30 16 -60 34 -66 38 -13 10 -370 189
-377 189 -3 0 -34 13 -69 29 -237 109 -709 262 -973 317 -145 29 -162 33 -200
39 -16 3 -41 7 -55 10 -41 8 -82 14 -129 20 -23 3 -55 7 -70 10 -14 2 -53 7
-86 10 -33 3 -73 8 -90 11 -32 7 -949 16 -956 10z"/>
</g>
</svg>
