<?xml version="1.0" standalone="no"?>
<!DOCTYPE svg PUBLIC "-//W3C//DTD SVG 20010904//EN"
 "http://www.w3.org/TR/2001/REC-SVG-20010904/DTD/svg10.dtd">
<svg version="1.0" xmlns="http://www.w3.org/2000/svg"
 width="500.000000pt" height="500.000000pt" viewBox="0 0 500.000000 500.000000"
 preserveAspectRatio="xMidYMid meet">
<metadata>
Created by potrace 1.14, written by Peter Selinger 2001-2017
</metadata>
<g transform="translate(0.000000,500.000000) scale(0.100000,-0.100000)"
fill="#000000" stroke="none">
<path d="M2328 4995 c-2 -2 -38 -6 -80 -9 -42 -4 -87 -9 -100 -11 -12 -3 -40
-7 -63 -11 -22 -3 -66 -12 -97 -19 -32 -7 -58 -11 -58 -8 0 3 -7 0 -15 -7 -8
-7 -15 -10 -15 -7 0 3 -15 1 -32 -4 -18 -6 -40 -12 -48 -14 -8 -2 -16 -4 -17
-5 -3 -3 -7 -4 -48 -14 -16 -4 -37 -10 -45 -13 -8 -4 -17 -7 -20 -8 -3 -1 -13
-5 -22 -8 -10 -4 -26 -10 -35 -14 -10 -3 -21 -7 -25 -8 -5 -2 -10 -4 -13 -5
-3 -1 -8 -3 -12 -5 -16 -4 -70 -28 -129 -56 -34 -16 -67 -29 -73 -29 -6 0 -11
-5 -11 -11 0 -5 -4 -8 -9 -5 -5 3 -14 -1 -21 -9 -6 -8 -27 -19 -46 -25 -19 -6
-34 -16 -34 -21 0 -6 -4 -7 -10 -4 -5 3 -10 1 -10 -4 0 -6 -7 -11 -15 -11 -8
0 -15 -4 -15 -8 0 -5 -18 -16 -40 -26 -22 -10 -40 -21 -40 -26 0 -4 -13 -13
-30 -20 -16 -7 -30 -16 -30 -21 0 -5 -6 -9 -12 -9 -7 0 -27 -13 -43 -28 -17
-16 -35 -31 -41 -33 -32 -12 -316 -282 -379 -359 -50 -63 -122 -158 -139 -185
-11 -16 -23 -34 -28 -40 -22 -25 -82 -124 -132 -218 -151 -281 -239 -565 -280
-904 -13 -101 -14 -463 -2 -538 2 -16 8 -52 11 -80 4 -27 8 -57 10 -65 1 -8 5
-31 9 -50 11 -65 18 -97 36 -165 12 -45 12 -44 30 -105 8 -25 14 -47 15 -50 5
-25 30 -88 38 -97 5 -7 7 -13 4 -13 -6 0 49 -133 77 -185 9 -16 16 -36 16 -42
0 -7 4 -13 8 -13 4 0 19 -25 32 -55 13 -30 28 -55 33 -55 4 0 6 -4 3 -8 -3 -5
3 -18 13 -29 10 -10 26 -36 36 -56 9 -20 21 -37 26 -37 5 0 9 -5 9 -10 0 -10
76 -119 90 -130 4 -3 11 -13 16 -22 17 -31 98 -121 214 -237 116 -117 159
-155 260 -229 30 -23 61 -46 68 -52 7 -7 66 -44 130 -83 328 -199 692 -320
1072 -356 96 -9 432 -7 505 3 49 7 172 27 200 32 11 2 31 6 45 9 53 10 66 13
110 26 25 7 50 13 55 14 25 6 115 36 165 55 30 12 60 23 65 24 28 8 209 90
235 107 8 5 33 18 55 29 22 11 54 29 70 40 17 11 37 23 45 27 23 10 75 47 78
56 2 4 10 7 18 7 8 0 14 5 14 10 0 6 6 10 13 10 6 0 26 14 44 30 18 17 35 30
38 30 4 0 12 6 19 12 7 7 33 29 57 48 46 36 269 256 304 300 209 259 341 487
443 766 23 62 43 122 46 135 3 13 16 65 29 114 32 119 56 258 65 375 13 176 6
474 -13 580 -2 14 -7 41 -9 60 -14 96 -57 264 -97 380 -16 47 -31 92 -33 100
-7 24 -35 89 -72 167 -19 39 -34 76 -34 81 0 6 -3 12 -7 14 -5 2 -24 33 -43
71 -19 37 -38 67 -42 67 -5 0 -8 5 -8 10 0 12 -72 124 -82 128 -5 2 -8 9 -8
15 0 7 -14 26 -30 44 -17 18 -30 35 -30 38 0 4 -6 12 -12 19 -7 7 -31 35 -53
62 -44 55 -240 253 -296 299 -243 200 -487 342 -765 443 -62 23 -122 43 -135
46 -13 3 -46 11 -74 20 -27 8 -61 17 -75 20 -14 2 -56 11 -95 19 -38 9 -97 18
-130 22 -33 4 -73 9 -90 12 -33 5 -422 13 -427 8z"/>
</g>
</svg>
