<?xml version="1.0" standalone="no"?>
<!DOCTYPE svg PUBLIC "-//W3C//DTD SVG 20010904//EN"
 "http://www.w3.org/TR/2001/REC-SVG-20010904/DTD/svg10.dtd">
<svg version="1.0" xmlns="http://www.w3.org/2000/svg"
 width="1484.000000pt" height="1484.000000pt" viewBox="0 0 1484.000000 1484.000000"
 preserveAspectRatio="xMidYMid meet">
<metadata>
Created by potrace 1.14, written by Peter Selinger 2001-2017
</metadata>
<g transform="translate(0.000000,1484.000000) scale(0.100000,-0.100000)"
fill="#000000" stroke="none">
<path d="M7098 14835 c-2 -2 -60 -6 -131 -9 -70 -3 -142 -8 -160 -10 -17 -3
-64 -7 -102 -11 -39 -3 -81 -7 -95 -10 -14 -2 -52 -7 -85 -10 -91 -10 -107
-12 -151 -19 -23 -4 -59 -9 -80 -11 -22 -3 -61 -10 -89 -15 -27 -6 -63 -12
-80 -15 -16 -2 -40 -6 -51 -9 -12 -2 -37 -7 -55 -10 -54 -9 -218 -43 -289 -61
-36 -9 -85 -21 -110 -27 -45 -10 -382 -104 -410 -114 -8 -3 -16 -5 -17 -5 -11
0 -373 -127 -473 -166 -8 -4 -18 -5 -22 -5 -5 1 -8 -2 -8 -6 0 -4 -21 -14 -47
-22 -27 -7 -63 -22 -80 -33 -18 -10 -33 -16 -33 -12 0 4 -6 3 -12 -3 -7 -5
-40 -21 -73 -35 -33 -14 -96 -42 -140 -63 -44 -21 -82 -38 -85 -39 -11 -2
-308 -154 -355 -181 -27 -16 -63 -36 -80 -44 -16 -8 -34 -18 -40 -23 -5 -4
-64 -39 -130 -78 -114 -68 -334 -207 -345 -219 -3 -3 -32 -23 -65 -44 -87 -57
-328 -235 -342 -254 -7 -9 -13 -12 -13 -8 0 4 -6 1 -13 -6 -8 -7 -31 -26 -52
-43 -21 -16 -43 -35 -49 -40 -6 -6 -32 -27 -58 -47 -26 -19 -45 -38 -41 -42 3
-3 1 -6 -5 -6 -7 0 -25 -11 -40 -24 -15 -14 -38 -34 -52 -46 -145 -124 -528
-501 -620 -609 -25 -29 -54 -63 -66 -75 -11 -11 -45 -50 -75 -86 -30 -36 -56
-67 -60 -70 -3 -3 -32 -39 -64 -80 -33 -41 -62 -77 -65 -80 -3 -3 -39 -50 -80
-105 -41 -55 -79 -104 -83 -110 -47 -62 -197 -281 -269 -395 -23 -36 -56 -88
-75 -117 -18 -28 -33 -54 -33 -57 0 -3 -15 -29 -33 -58 -19 -29 -37 -60 -40
-68 -4 -8 -28 -51 -52 -95 -25 -44 -56 -100 -68 -125 -12 -25 -25 -47 -28 -50
-6 -5 -16 -31 -17 -40 0 -3 -14 -29 -31 -58 -17 -29 -31 -54 -31 -56 0 -2 -20
-46 -44 -97 -73 -156 -96 -210 -138 -314 -22 -55 -44 -106 -49 -115 -32 -61
-232 -659 -255 -761 -2 -11 -6 -27 -8 -37 -2 -9 -9 -37 -16 -62 -7 -25 -14
-52 -16 -60 -2 -8 -8 -35 -15 -60 -14 -60 -12 -51 -55 -245 -2 -11 -6 -31 -9
-45 -3 -14 -7 -34 -9 -45 -7 -37 -35 -190 -40 -220 -8 -52 -18 -119 -22 -150
-2 -16 -6 -46 -9 -65 -3 -19 -7 -60 -10 -90 -3 -30 -8 -66 -10 -80 -3 -14 -8
-56 -11 -95 -3 -38 -8 -86 -10 -105 -26 -256 -26 -939 1 -1227 17 -177 34
-331 50 -438 3 -22 8 -56 11 -75 2 -19 6 -46 9 -60 2 -14 7 -38 10 -55 3 -16
7 -39 9 -50 2 -11 11 -60 20 -110 32 -171 133 -591 164 -675 3 -8 7 -23 8 -32
5 -24 139 -425 155 -463 6 -16 13 -35 14 -41 2 -6 9 -27 18 -45 8 -19 27 -65
42 -104 52 -131 108 -259 161 -371 19 -39 34 -74 34 -79 0 -4 10 -21 22 -38
13 -18 22 -33 21 -34 -4 -4 31 -78 40 -84 5 -3 9 -10 8 -15 0 -5 23 -52 52
-104 29 -52 54 -99 56 -105 18 -45 357 -593 381 -615 3 -3 18 -24 33 -48 15
-23 34 -50 42 -60 7 -9 54 -72 104 -139 50 -68 100 -132 111 -143 11 -11 18
-20 15 -20 -3 0 6 -12 19 -27 29 -34 94 -112 120 -144 81 -101 230 -262 411
-444 154 -154 226 -222 369 -350 13 -11 39 -35 59 -52 20 -18 41 -33 47 -33 5
0 10 -4 10 -9 0 -5 24 -27 53 -49 28 -22 61 -48 72 -59 11 -10 36 -30 55 -43
35 -24 62 -46 84 -65 35 -32 252 -185 401 -285 61 -40 122 -81 137 -91 15 -11
31 -19 37 -19 5 0 11 -4 13 -8 3 -8 245 -152 255 -152 4 0 14 -6 22 -14 39
-33 608 -318 661 -331 3 0 21 -8 40 -17 19 -8 51 -23 70 -31 46 -21 291 -117
310 -123 8 -2 101 -33 205 -68 286 -98 647 -196 850 -231 11 -2 31 -6 45 -9
14 -3 41 -9 60 -12 19 -4 44 -9 55 -11 11 -2 34 -6 50 -9 17 -3 53 -9 80 -14
28 -6 67 -12 88 -15 20 -3 54 -7 75 -10 20 -3 51 -7 67 -9 17 -3 57 -8 90 -11
33 -3 71 -8 85 -10 41 -7 156 -17 350 -32 137 -10 751 -10 905 0 145 9 204 14
270 22 28 3 70 7 95 10 124 14 199 23 240 30 14 2 43 7 65 10 22 2 54 7 70 10
17 3 44 7 60 10 17 3 41 7 55 10 14 3 41 8 60 11 131 20 495 106 664 155 38
12 77 22 87 24 11 2 24 7 29 10 5 3 19 8 30 11 40 8 57 14 175 54 99 34 293
103 355 127 8 4 17 7 20 8 3 1 21 9 40 17 40 17 73 31 80 33 3 1 21 8 40 17
19 8 64 28 100 43 36 15 110 49 165 75 55 26 115 53 133 61 17 8 32 17 32 20
0 4 10 9 23 13 12 3 85 39 162 81 76 41 142 75 147 75 4 0 8 5 8 10 0 6 5 10
10 10 11 0 282 159 290 170 3 4 15 10 28 14 12 4 22 11 22 14 0 4 20 18 45 32
25 14 45 28 45 32 0 5 7 8 15 8 8 0 15 5 15 10 0 6 7 10 15 10 8 0 15 4 15 9
0 5 8 11 18 15 9 3 40 22 67 41 28 20 61 44 74 53 13 9 29 23 36 30 8 6 16 12
19 12 6 0 147 106 216 162 19 16 40 32 45 36 22 15 131 106 140 117 6 6 17 16
26 21 16 8 119 99 197 171 19 18 39 33 43 33 5 0 9 7 9 15 0 8 5 15 10 15 6 0
90 80 188 177 168 168 235 239 344 364 88 101 99 114 121 142 12 16 27 34 32
40 6 7 47 57 90 112 44 55 83 101 88 103 4 2 7 8 7 13 0 7 69 102 118 164 4 6
32 46 62 90 29 44 57 81 62 83 4 2 8 8 8 13 0 7 75 126 148 235 7 10 18 31 25
47 6 15 15 27 19 27 4 0 8 4 8 9 0 5 18 39 41 76 80 133 355 665 343 665 -2 0
7 21 20 48 47 89 149 343 213 527 19 55 37 107 40 115 3 8 7 20 9 25 1 6 12
37 23 70 12 33 23 67 25 75 3 8 23 79 45 156 23 78 44 150 46 160 2 11 16 66
30 124 30 119 34 135 41 170 2 14 11 54 19 90 8 36 16 81 20 100 3 19 10 55
15 80 5 25 12 61 14 80 3 19 8 44 10 56 2 12 7 45 11 75 3 30 8 61 10 69 2 8
7 38 10 66 3 28 8 61 10 75 3 13 7 56 10 94 3 39 8 88 11 110 21 163 29 361
28 720 0 339 -8 535 -30 715 -4 30 -8 69 -9 85 -3 28 -5 50 -21 179 -3 27 -8
58 -10 70 -3 12 -7 35 -9 51 -4 28 -10 68 -21 140 -3 17 -18 98 -35 180 -30
148 -33 163 -45 217 -3 15 -5 29 -4 30 1 2 -3 16 -9 31 -6 15 -13 40 -16 55
-7 41 -60 237 -89 332 -15 47 -29 94 -31 105 -10 44 -138 411 -164 470 -5 11
-28 67 -51 125 -41 104 -47 119 -90 215 -75 167 -163 347 -235 480 -21 39 -46
86 -57 105 -10 19 -22 42 -27 50 -32 52 -147 246 -150 253 -2 5 -34 56 -72
113 -38 57 -69 108 -69 113 0 5 -7 14 -15 21 -8 7 -36 44 -61 84 -26 39 -50
73 -53 76 -4 3 -35 46 -71 95 -36 50 -70 97 -77 105 -6 8 -51 65 -100 125 -48
61 -92 115 -98 122 -5 6 -26 30 -45 54 -19 23 -46 54 -60 69 -14 15 -54 60
-90 101 -85 95 -402 413 -508 509 -105 94 -93 84 -182 159 -41 36 -76 68 -78
73 -2 4 -10 8 -17 8 -7 0 -15 3 -17 8 -2 4 -28 27 -58 52 -30 25 -56 48 -58
53 -2 4 -10 7 -17 7 -7 0 -15 4 -17 8 -2 5 -48 42 -103 83 -55 41 -101 77
-103 82 -2 4 -9 7 -15 7 -6 0 -20 8 -31 19 -31 27 -323 221 -335 221 -5 0 -11
4 -13 8 -2 5 -32 26 -68 47 -36 21 -81 49 -101 62 -19 13 -38 23 -42 23 -4 0
-30 15 -59 33 -52 33 -242 135 -388 208 -95 47 -215 103 -345 159 -22 10 -56
25 -76 33 -48 22 -271 109 -284 111 -5 1 -21 8 -35 16 -14 7 -27 13 -30 13 -3
0 -9 1 -15 3 -415 143 -904 273 -1205 319 -14 2 -52 9 -85 14 -33 5 -76 12
-95 15 -19 3 -44 7 -55 10 -11 2 -47 7 -80 11 -33 4 -73 8 -90 10 -16 3 -55 7
-85 10 -30 3 -71 8 -90 10 -33 4 -125 12 -235 21 -63 5 -802 13 -807 9z"/>
</g>
</svg>
